<mxfile host="app.diagrams.net" modified="2024-07-22T01:07:00.524Z" agent="Mozilla/5.0 (Windows NT 10.0; Win64; x64) AppleWebKit/537.36 (KHTML, like Gecko) Chrome/125.0.0.0 Safari/537.36" version="24.7.1" etag="3eSMHHvx5D7vgc_mfj4B" type="github">
  <diagram name="第 1 页" id="-zneHVOcYKzw8UY9J7JN">
    <mxGraphModel>
      <root>
        <mxCell id="0" />
        <mxCell id="1" parent="0" />
        <mxCell id="2" value="Main Server" style="rounded=1;absoluteArcSize=1;arcSize=14;whiteSpace=wrap;strokeWidth=2;" vertex="1" parent="1">
          <mxGeometry x="1313" width="100" height="33" as="geometry" />
        </mxCell>
        <mxCell id="3" value="Satellite Server 1" style="rounded=1;absoluteArcSize=1;arcSize=14;whiteSpace=wrap;strokeWidth=2;" vertex="1" parent="1">
          <mxGeometry x="507" y="102" width="139" height="33" as="geometry" />
        </mxCell>
        <mxCell id="4" value="Satellite Server 2" style="rounded=1;absoluteArcSize=1;arcSize=14;whiteSpace=wrap;strokeWidth=2;" vertex="1" parent="1">
          <mxGeometry x="696" y="102" width="139" height="33" as="geometry" />
        </mxCell>
        <mxCell id="5" value="Satellite Server 3" style="rounded=1;absoluteArcSize=1;arcSize=14;whiteSpace=wrap;strokeWidth=2;" vertex="1" parent="1">
          <mxGeometry x="885" y="102" width="139" height="33" as="geometry" />
        </mxCell>
        <mxCell id="6" value="Satellite Server 4" style="rounded=1;absoluteArcSize=1;arcSize=14;whiteSpace=wrap;strokeWidth=2;" vertex="1" parent="1">
          <mxGeometry x="1073" y="102" width="139" height="33" as="geometry" />
        </mxCell>
        <mxCell id="7" value="Satellite Server 5" style="rounded=1;absoluteArcSize=1;arcSize=14;whiteSpace=wrap;strokeWidth=2;" vertex="1" parent="1">
          <mxGeometry x="1263" y="102" width="139" height="33" as="geometry" />
        </mxCell>
        <mxCell id="8" value="Satellite Server 6" style="rounded=1;absoluteArcSize=1;arcSize=14;whiteSpace=wrap;strokeWidth=2;" vertex="1" parent="1">
          <mxGeometry x="1451" y="102" width="139" height="33" as="geometry" />
        </mxCell>
        <mxCell id="9" value="Satellite Server 7" style="rounded=1;absoluteArcSize=1;arcSize=14;whiteSpace=wrap;strokeWidth=2;" vertex="1" parent="1">
          <mxGeometry x="1640" y="102" width="139" height="33" as="geometry" />
        </mxCell>
        <mxCell id="10" value="A API" style="rounded=1;absoluteArcSize=1;arcSize=14;whiteSpace=wrap;strokeWidth=2;" vertex="1" parent="1">
          <mxGeometry x="80" y="204" width="51" height="33" as="geometry" />
        </mxCell>
        <mxCell id="11" value="B API" style="rounded=1;absoluteArcSize=1;arcSize=14;whiteSpace=wrap;strokeWidth=2;" vertex="1" parent="1">
          <mxGeometry x="311" y="204" width="51" height="33" as="geometry" />
        </mxCell>
        <mxCell id="12" value="ITG API 1" style="rounded=1;absoluteArcSize=1;arcSize=14;whiteSpace=wrap;strokeWidth=2;" vertex="1" parent="1">
          <mxGeometry x="527" y="204" width="80" height="33" as="geometry" />
        </mxCell>
        <mxCell id="13" value="ITG API 2" style="rounded=1;absoluteArcSize=1;arcSize=14;whiteSpace=wrap;strokeWidth=2;" vertex="1" parent="1">
          <mxGeometry x="757" y="204" width="80" height="33" as="geometry" />
        </mxCell>
        <mxCell id="14" value="MX API" style="rounded=1;absoluteArcSize=1;arcSize=14;whiteSpace=wrap;strokeWidth=2;" vertex="1" parent="1">
          <mxGeometry x="996" y="204" width="63" height="33" as="geometry" />
        </mxCell>
        <mxCell id="15" value="NCK API 1" style="rounded=1;absoluteArcSize=1;arcSize=14;whiteSpace=wrap;strokeWidth=2;" vertex="1" parent="1">
          <mxGeometry x="1216" y="204" width="84" height="33" as="geometry" />
        </mxCell>
        <mxCell id="16" value="NCK API 2" style="rounded=1;absoluteArcSize=1;arcSize=14;whiteSpace=wrap;strokeWidth=2;" vertex="1" parent="1">
          <mxGeometry x="1447" y="204" width="84" height="33" as="geometry" />
        </mxCell>
        <mxCell id="17" value="provides WC data" style="curved=1;startArrow=none;endArrow=block;exitX=0;exitY=0.6;entryX=0.5;entryY=-0.01;" edge="1" parent="1" source="2" target="3">
          <mxGeometry relative="1" as="geometry">
            <Array as="points">
              <mxPoint x="577" y="68" />
            </Array>
          </mxGeometry>
        </mxCell>
        <mxCell id="18" value="provides WC data" style="curved=1;startArrow=none;endArrow=block;exitX=0;exitY=0.64;entryX=0.5;entryY=-0.01;" edge="1" parent="1" source="2" target="4">
          <mxGeometry relative="1" as="geometry">
            <Array as="points">
              <mxPoint x="765" y="68" />
            </Array>
          </mxGeometry>
        </mxCell>
        <mxCell id="19" value="provides WC data" style="curved=1;startArrow=none;endArrow=block;exitX=0;exitY=0.69;entryX=0.5;entryY=-0.01;" edge="1" parent="1" source="2" target="5">
          <mxGeometry relative="1" as="geometry">
            <Array as="points">
              <mxPoint x="954" y="68" />
            </Array>
          </mxGeometry>
        </mxCell>
        <mxCell id="20" value="provides WC data" style="curved=1;startArrow=none;endArrow=block;exitX=0;exitY=0.86;entryX=0.5;entryY=-0.01;" edge="1" parent="1" source="2" target="6">
          <mxGeometry relative="1" as="geometry">
            <Array as="points">
              <mxPoint x="1143" y="68" />
            </Array>
          </mxGeometry>
        </mxCell>
        <mxCell id="21" value="provides WC data" style="curved=1;startArrow=none;endArrow=block;exitX=0.4;exitY=1.01;entryX=0.5;entryY=-0.01;" edge="1" parent="1" source="2" target="7">
          <mxGeometry relative="1" as="geometry">
            <Array as="points">
              <mxPoint x="1332" y="68" />
            </Array>
          </mxGeometry>
        </mxCell>
        <mxCell id="22" value="provides WC data" style="curved=1;startArrow=none;endArrow=block;exitX=1.01;exitY=1;entryX=0.5;entryY=-0.01;" edge="1" parent="1" source="2" target="8">
          <mxGeometry relative="1" as="geometry">
            <Array as="points">
              <mxPoint x="1521" y="68" />
            </Array>
          </mxGeometry>
        </mxCell>
        <mxCell id="23" value="provides WC data" style="curved=1;startArrow=none;endArrow=block;exitX=1.01;exitY=0.73;entryX=0.5;entryY=-0.01;" edge="1" parent="1" source="2" target="9">
          <mxGeometry relative="1" as="geometry">
            <Array as="points">
              <mxPoint x="1710" y="68" />
            </Array>
          </mxGeometry>
        </mxCell>
        <mxCell id="24" value="provides IIS platform services" style="curved=1;startArrow=none;endArrow=block;exitX=0;exitY=0.73;entryX=0.5;entryY=-0.01;" edge="1" parent="1" source="3" target="10">
          <mxGeometry relative="1" as="geometry">
            <Array as="points">
              <mxPoint x="105" y="169" />
            </Array>
          </mxGeometry>
        </mxCell>
        <mxCell id="25" value="provides IIS platform services" style="curved=1;startArrow=none;endArrow=block;exitX=0;exitY=0.94;entryX=0.49;entryY=-0.01;" edge="1" parent="1" source="3" target="11">
          <mxGeometry relative="1" as="geometry">
            <Array as="points">
              <mxPoint x="336" y="169" />
            </Array>
          </mxGeometry>
        </mxCell>
        <mxCell id="26" value="provides IIS platform services" style="curved=1;startArrow=none;endArrow=block;exitX=0.48;exitY=1.01;entryX=0.49;entryY=-0.01;" edge="1" parent="1" source="3" target="12">
          <mxGeometry relative="1" as="geometry">
            <Array as="points">
              <mxPoint x="567" y="169" />
            </Array>
          </mxGeometry>
        </mxCell>
        <mxCell id="27" value="provides IIS platform services" style="curved=1;startArrow=none;endArrow=block;exitX=1;exitY=0.99;entryX=0.5;entryY=-0.01;" edge="1" parent="1" source="3" target="13">
          <mxGeometry relative="1" as="geometry">
            <Array as="points">
              <mxPoint x="797" y="169" />
            </Array>
          </mxGeometry>
        </mxCell>
        <mxCell id="28" value="provides IIS platform services" style="curved=1;startArrow=none;endArrow=block;exitX=1;exitY=0.74;entryX=0.5;entryY=-0.01;" edge="1" parent="1" source="3" target="14">
          <mxGeometry relative="1" as="geometry">
            <Array as="points">
              <mxPoint x="1028" y="169" />
            </Array>
          </mxGeometry>
        </mxCell>
        <mxCell id="29" value="provides IIS platform services" style="curved=1;startArrow=none;endArrow=block;exitX=1;exitY=0.66;entryX=0.51;entryY=-0.01;" edge="1" parent="1" source="3" target="15">
          <mxGeometry relative="1" as="geometry">
            <Array as="points">
              <mxPoint x="1258" y="169" />
            </Array>
          </mxGeometry>
        </mxCell>
        <mxCell id="30" value="provides IIS platform services" style="curved=1;startArrow=none;endArrow=block;exitX=1;exitY=0.62;entryX=0.5;entryY=-0.01;" edge="1" parent="1" source="3" target="16">
          <mxGeometry relative="1" as="geometry">
            <Array as="points">
              <mxPoint x="1489" y="169" />
            </Array>
          </mxGeometry>
        </mxCell>
      </root>
    </mxGraphModel>
  </diagram>
</mxfile>
